<?xml version="1.0" ?><svg width="64px" height="64px" viewBox="0 0 64 64" enable-background="new 0 0 64 64" id="Layer_1" version="1.1" xml:space="preserve" xmlns="http://www.w3.org/2000/svg" xmlns:xlink="http://www.w3.org/1999/xlink"><g><g><circle cx="32" cy="32" fill="#5BC4C5" r="30"/></g><g><g><polygon fill="#442718" points="38.3,54.6 25.7,54.6 25.1,49.7 38.9,49.7    "/></g><g><polygon fill="#54321F" points="39.1,50.9 24.9,50.9 22.8,23.4 41.2,23.4    "/></g><g><rect fill="#A88771" height="1.9" width="18.4" x="22.8" y="21.5"/></g><g><path d="M41.2,21.5c-0.7-4.4-4.6-7.8-9.2-7.8c-4.6,0-8.5,3.4-9.2,7.8H41.2z" fill="#D8D8D7"/></g><g><polygon fill="#A88771" points="40,43 41.1,29.2 22.9,29.2 23.8,43    "/></g><g><g><path d="M36.4,21.5h3.4c0,0,0-0.7-0.4-1.6h-3.2C36.4,20.4,36.4,20.9,36.4,21.5z" fill="#BEBEB9"/></g><g><path d="M33.3,14.3c0,0,1.7,1.6,2.6,4.2h3C37.9,17,36.3,15.3,33.3,14.3z" fill="#BEBEB9"/></g><g><path d="M31,14.3c-3,1-4.7,2.7-5.6,4.2h3C29.3,16,31,14.3,31,14.3z" fill="#BEBEB9"/></g></g><g><path d="M41,6.9c-0.2-0.3-0.5-0.4-0.8-0.2l-8,4.5c-0.2,0.1-0.3,0.3-0.3,0.5l-0.2,5.7c0.3-0.1,0.7-0.2,1.1-0.2     l0.1-5.1l7.7-4.3C41,7.5,41.1,7.2,41,6.9z" fill="#442718"/></g><g><path d="M31.8,17.3c-0.7,0.3-1.2,0.6-1.2,0.6c-1.8-1.3-3.1,0.5-3.1,0.5c-3-0.9-4.2,3-4.2,3h8.4h1.1h7.7     c0.2-1.8-1.8-2.2-1.8-2.2c-0.8-0.9-2.2-0.8-2.2-0.8c-0.9-1.3-3-1.3-3-1.3c-0.2,0-0.3-0.1-0.5-0.1C32.5,17.1,32.2,17.2,31.8,17.3z     " fill="#EAE9E7"/></g><g opacity="0.25"><polygon fill="#E8E7E7" points="40,43 41.1,29.2 40.8,29.2 41.2,23.4 22.8,23.4 39.1,50.9 39.7,43    "/></g></g></g></svg>