<?xml version="1.0" encoding="iso-8859-1"?>
<!-- Generator: Adobe Illustrator 19.0.0, SVG Export Plug-In . SVG Version: 6.00 Build 0)  -->
<svg version="1.1" id="Layer_1" xmlns="http://www.w3.org/2000/svg" xmlns:xlink="http://www.w3.org/1999/xlink" x="0px" y="0px"
	 viewBox="0 0 473.654 473.654" style="enable-background:new 0 0 473.654 473.654;" xml:space="preserve">
<circle style="fill:#EDC92C;" cx="236.827" cy="236.827" r="236.827"/>
<path style="fill:#7C7B7B;" d="M214.199,105.639l-31.091-21.794l-15.785,7.909l16.054,32.026l-18.417,9.233l-16.058-32.026
	l-14.203,7.128l-1.137,37.949l36.711,16.353l99.237,220.945c1.455,2.898,5.105,4.024,8.141,2.506l41.734-20.927
	c3.04-1.518,4.319-5.12,2.868-8.021L205.063,146.928L214.199,105.639z"/>
<path style="fill:#868787;" d="M213.915,105.071l-30.059-21.903l-14.928,7.494l15.874,31.663l-17.419,8.736l-15.878-31.67
	l-13.44,6.735l-0.426,37.19l35.328,16.66l98.77,218.758c1.44,2.872,4.936,4.031,7.812,2.592l39.479-19.794
	c2.876-1.44,4.035-4.944,2.595-7.808L205.901,145.387L213.915,105.071z"/>
<path style="fill:#A46434;" d="M303.283,114.513c11.237,19.079,0.983,29.326,0.983,29.326l-153.88,215.31
	c-1.896,2.584-1.328,6.23,1.26,8.13l35.627,26.091c2.595,1.9,6.241,1.335,8.141-1.257c0,0,126.7-220.283,132.934-228.802
	c12.744-17.404,48.708,5.501,48.708,5.501c-0.314,1.477-2.363,5.609-1.657,6.129l14.902,10.912c1.589,1.163,5.366-1.301,8.425-5.486
	l9.794-13.373c3.059-4.177,4.263-8.515,2.674-9.678l-14.902-10.912c-0.998-0.729-2.846-0.045-4.835,1.593l-28.499-25.418
	l-0.064,0.079c0,0-23.84-25.87-28.963-29.617c-35.818-26.229-67.051-3.564-76.026,7.917
	C257.907,100.957,294.136,98.979,303.283,114.513z"/>
<path style="fill:#626463;" d="M303.283,114.513c11.237,19.079,0.983,29.326,0.983,29.326l24.079,19.472
	c12.744-17.404,48.708,5.501,48.708,5.501c-0.314,1.477-2.363,5.609-1.657,6.129l14.902,10.912c1.589,1.163,5.366-1.301,8.425-5.486
	l9.794-13.373c3.059-4.177,4.263-8.515,2.674-9.678l-14.902-10.912c-0.998-0.729-2.846-0.045-4.835,1.593l-28.499-25.418
	l-0.064,0.079c0,0-23.84-25.87-28.963-29.617c-35.818-26.229-67.051-3.564-76.026,7.917
	C257.907,100.957,294.136,98.979,303.283,114.513z"/>
<g>
</g>
<g>
</g>
<g>
</g>
<g>
</g>
<g>
</g>
<g>
</g>
<g>
</g>
<g>
</g>
<g>
</g>
<g>
</g>
<g>
</g>
<g>
</g>
<g>
</g>
<g>
</g>
<g>
</g>
</svg>
