<?xml version="1.0" encoding="iso-8859-1"?>
<!-- Generator: Adobe Illustrator 19.0.0, SVG Export Plug-In . SVG Version: 6.00 Build 0)  -->
<svg version="1.1" id="Layer_1" xmlns="http://www.w3.org/2000/svg" xmlns:xlink="http://www.w3.org/1999/xlink" x="0px" y="0px"
	 viewBox="0 0 460 460" style="enable-background:new 0 0 460 460;" xml:space="preserve">
<g id="XMLID_865_">
	<path id="XMLID_866_" style="fill:#084B63;" d="M230,0C102.974,0,0,102.975,0,230c0,103.712,68.651,191.38,162.985,220.07
		l281.918-302.152C411.849,61.431,328.105,0,230,0z"/>
	<path id="XMLID_867_" style="fill:#06384A;" d="M460,230c0-28.92-5.353-56.586-15.097-82.082l-66.411-66.411l-256.68,327.39
		l41.172,41.172C184.19,456.519,206.687,460,230,460C357.026,460,460,357.025,460,230z"/>
	<polygon id="XMLID_55_" style="fill:#2089B0;" points="84.336,290.811 51.102,338.187 86.457,373.543 140.905,333.238 	"/>
	<polygon id="XMLID_54_" style="fill:#146A8A;" points="169.189,375.664 133.833,326.167 86.457,373.543 121.813,408.898 	"/>
	<polygon id="XMLID_53_" style="fill:#A3DDE9;" points="70.194,177.674 20.696,227.172 84.336,248.385 98.478,262.527 
		190.402,170.603 176.26,156.461 	"/>
	<polygon id="XMLID_52_" style="fill:#62B3CD;" points="303.539,283.74 289.397,269.598 197.473,361.522 211.615,375.664 
		232.828,439.304 282.326,389.806 	"/>
	<path id="XMLID_51_" style="fill:#FFFFFF;" d="M215.858,116.863L63.123,269.598l63.64,63.64l132.936-118.794L378.492,81.508
		C323.939,61.009,259.905,72.816,215.858,116.863z"/>
	<path id="XMLID_50_" style="fill:#A3DDE9;" d="M343.137,244.142c44.047-44.047,55.854-108.081,35.355-162.634l-251.73,251.73
		l63.64,63.64L343.137,244.142z"/>
	<path id="XMLID_49_" style="fill:#82C8DB;" d="M265.355,123.934c-19.526,19.526-19.526,51.184,0,70.711l47.14-23.57l23.57-47.14
		C316.54,104.408,284.882,104.408,265.355,123.934z"/>
	<path id="XMLID_48_" style="fill:#419EBE;" d="M336.066,123.934l-70.711,70.711c19.526,19.526,51.184,19.526,70.711,0
		C355.592,175.118,355.592,143.46,336.066,123.934z"/>
	<path id="XMLID_47_" style="fill:#FFFFFF;" d="M279.497,138.076c-11.716,11.716-11.716,30.711,0,42.426l28.284-14.142
		l14.142-28.284C310.208,126.36,291.213,126.36,279.497,138.076z"/>
	
		<rect id="XMLID_46_" x="161.261" y="213.738" transform="matrix(-0.7071 -0.7071 0.7071 -0.7071 100.2636 609.0051)" style="fill:#62B3CD;" width="30" height="139.999"/>
	<path id="XMLID_45_" style="fill:#F7B93F;" d="M321.924,138.076l-42.426,42.426c11.716,11.716,30.711,11.716,42.426,0
		C333.64,168.787,333.64,149.792,321.924,138.076z"/>
</g>
<g>
</g>
<g>
</g>
<g>
</g>
<g>
</g>
<g>
</g>
<g>
</g>
<g>
</g>
<g>
</g>
<g>
</g>
<g>
</g>
<g>
</g>
<g>
</g>
<g>
</g>
<g>
</g>
<g>
</g>
</svg>
