<?xml version="1.0" encoding="iso-8859-1"?>
<!-- Generator: Adobe Illustrator 19.0.0, SVG Export Plug-In . SVG Version: 6.00 Build 0)  -->
<svg xmlns="http://www.w3.org/2000/svg" xmlns:xlink="http://www.w3.org/1999/xlink" version="1.1" id="Layer_1" x="0px" y="0px" viewBox="0 0 404.24 404.24" style="enable-background:new 0 0 404.24 404.24;" xml:space="preserve" width="512" height="512">
<g>
	<path style="fill:#E6E6E6;" d="M217.224,312.336v72.896h-30.2v-72.896c4.96,0.637,10,0.955,15.1,0.955   S212.264,312.973,217.224,312.336z"/>
	<path style="fill:#F24125;" d="M202.121,0c79.97,0,144.8,115.21,144.8,188.8c0,68.9-56.82,125.57-129.7,132.52   c-4.96,0.481-10,0.721-15.1,0.721s-10.14-0.24-15.1-0.721c-72.88-6.949-129.7-63.62-129.7-132.52C57.32,115.21,122.15,0,202.121,0"/>
	<path style="fill:#CCCCCC;" d="M202.124,322.039c-5.1,0-10.14-0.24-15.1-0.72v22c4.96,0.48,10,0.72,15.1,0.72s10.14-0.24,15.1-0.72   v-22C212.264,321.799,207.224,322.039,202.124,322.039z"/>
	<path style="fill:#A5A5A5;" d="M202.332,322.04c-0.071,0-0.141,0-0.212,0C202.191,322.041,202.262,322.041,202.332,322.04    M202.529,322.04c-0.032,0-0.063,0-0.095,0C202.465,322.04,202.497,322.04,202.529,322.04 M59.036,209.375   c9.992,59.323,62.506,105.701,127.985,111.945c4.727,0.458,9.528,0.697,14.383,0.719c-4.855-0.021-9.656-0.261-14.383-0.719   C121.542,315.076,69.028,268.698,59.036,209.375 M202.301,0c0.005,0,0.01,0,0.015,0C202.311,0,202.306,0,202.301,0"/>
	<path style="fill:#DD3B2A;" d="M202.121,0c-79.97,0-144.8,115.21-144.8,188.8c0,6.998,0.586,13.869,1.716,20.575   c9.992,59.323,62.506,105.701,127.985,111.944c4.727,0.458,9.528,0.698,14.383,0.719c0.239,0.001,0.478,0.001,0.717,0.001l0,0   c0.071,0,0.141,0,0.212,0c0.034,0,0.068,0,0.101,0c0.032,0,0.063,0,0.095,0c3.903-0.01,7.768-0.167,11.59-0.458   c-1.036-0.079-2.071-0.162-3.1-0.261c-72.88-6.95-129.7-63.62-129.7-132.521c0-69.871,58.445-177.247,132.801-187.923   C210.226,0.318,206.291,0.01,202.316,0c-0.005,0-0.01,0-0.015,0C202.241,0,202.18,0,202.121,0L202.121,0"/>
	<path style="fill:#4CC18E;" d="M296.6,151.76c0,12.53-2.88,24.45-8.08,35.21c-24.46-15.81-148.34-15.81-172.8,0   c-5.2-10.76-8.08-22.68-8.08-35.21c0-48.02,42.301-116.26,94.48-116.26S296.6,103.74,296.6,151.76"/>
	<path style="fill:#9E3B2B;" d="M200.361,35.526c-0.005,0-0.009,0-0.014,0C200.35,35.526,200.358,35.526,200.361,35.526    M200.541,35.521c-0.008,0-0.018,0-0.026,0.001C200.521,35.521,200.535,35.521,200.541,35.521 M200.711,35.517   c-0.006,0-0.012,0-0.018,0C200.7,35.517,200.705,35.517,200.711,35.517 M200.884,35.513c-0.004,0-0.006,0-0.01,0   C200.878,35.513,200.881,35.513,200.884,35.513 M201.265,35.506c-0.012,0-0.026,0-0.038,0   C201.239,35.507,201.252,35.507,201.265,35.506 M201.445,35.504c-0.017,0-0.034,0-0.052,0.001   C201.409,35.504,201.429,35.504,201.445,35.504 M201.617,35.502c-0.019,0-0.038,0-0.058,0   C201.578,35.503,201.598,35.502,201.617,35.502 M201.787,35.501c-0.019,0-0.039,0-0.059,0   C201.748,35.501,201.768,35.501,201.787,35.501 M201.954,35.5c-0.018,0-0.033,0-0.051,0C201.922,35.5,201.935,35.5,201.954,35.5"/>
	<path style="fill:#42B27C;" d="M202.121,35.5L202.121,35.5c-0.055,0-0.111,0-0.167,0c-0.019,0-0.032,0-0.051,0   c-0.039,0-0.077,0-0.116,0c-0.019,0-0.04,0-0.059,0c-0.037,0-0.074,0-0.111,0.001c-0.019,0-0.039,0-0.058,0   c-0.038,0-0.077,0.001-0.114,0.001c-0.016,0-0.036,0-0.052,0.001c-0.043,0-0.085,0.001-0.128,0.002c-0.013,0-0.026,0-0.038,0   c-0.114,0.002-0.228,0.004-0.342,0.006c-0.003,0-0.007,0-0.01,0c-0.054,0.001-0.109,0.002-0.163,0.004c-0.006,0-0.012,0-0.018,0   c-0.051,0.001-0.102,0.003-0.152,0.004c-0.006,0-0.02,0-0.026,0.001c-0.051,0.001-0.102,0.003-0.154,0.004   c-0.003,0-0.011,0-0.014,0c-14.461,0.429-28.124,6.074-40.298,15.013c51.289,1.652,92.552,68.793,92.552,116.22   c0,1.035-0.027,2.063-0.066,3.089c7.145,2.337,8.736,15.029,15.339,18.29c5.027,2.483,13.75-1.25,19.857-1.676   c0.01-0.001,0.018,0.011,0.027,0.017c0.076,0.049,0.152,0.097,0.228,0.146c0.013,0.009,0.028,0.018,0.042,0.027   c0.075,0.048,0.148,0.095,0.223,0.143c0.012,0.008,0.024,0.016,0.036,0.023c0.078,0.05,0.156,0.101,0.234,0.151l0,0l0,0l0,0   c5.2-10.76,8.08-22.68,8.08-35.21C296.6,103.74,254.3,35.5,202.121,35.5"/>
	<path style="fill:#F7B239;" d="M288.524,186.969c-7.12,14.77-18.57,27.38-32.88,36.44c-15.21,9.65-33.65,15.29-53.52,15.29   c-38.56,0-71.72-21.26-86.4-51.73c10.33-6.67,21.61-12.19,33.62-16.32c16.42-5.67,34.21-8.76,52.78-8.76   C234.274,161.889,264.064,171.159,288.524,186.969z"/>
	<path style="fill:#418366;" d="M115.999,186.791c-0.006,0.004-0.013,0.009-0.02,0.013   C115.986,186.799,115.993,186.794,115.999,186.791 M116.273,186.615c-0.006,0.003-0.011,0.007-0.016,0.01   C116.261,186.623,116.268,186.618,116.273,186.615"/>
	<polyline style="fill:#9E3B2B;" points="204.958,238.662 204.949,238.662 204.958,238.662  "/>
	<path style="fill:#9E3B2B;" d="M204.712,238.668c-0.009,0-0.018,0-0.027,0C204.694,238.669,204.703,238.668,204.712,238.668"/>
	<path style="fill:#9E3B2B;" d="M204.2,238.68c-0.007,0-0.014,0-0.021,0C204.186,238.68,204.193,238.68,204.2,238.68"/>
	<path style="fill:#9E3B2B;" d="M203.676,238.689c-0.014,0-0.026,0-0.04,0C203.649,238.689,203.662,238.689,203.676,238.689"/>
	<path style="fill:#9E3B2B;" d="M203.433,238.692c-0.023,0-0.048,0-0.072,0.001C203.385,238.693,203.408,238.692,203.433,238.692"/>
	<path style="fill:#9E3B2B;" d="M203.191,238.695c-0.031,0-0.057,0-0.087,0.001C203.132,238.695,203.163,238.695,203.191,238.695"/>
	<path style="fill:#9E3B2B;" d="M202.946,238.697c-0.031,0-0.061,0-0.092,0.001C202.884,238.698,202.916,238.697,202.946,238.697"/>
	<path style="fill:#9E3B2B;" d="M202.7,238.699c-0.031,0-0.062,0-0.092,0C202.639,238.699,202.669,238.699,202.7,238.699"/>
	<path style="fill:#9E3B2B;" d="M202.446,238.7c-0.028,0-0.055,0-0.083,0C202.391,238.7,202.418,238.7,202.446,238.7"/>
	<path style="fill:#E5A030;" d="M255.644,223.409c-15.21,9.65-33.65,15.29-53.52,15.29c-38.56,0-71.72-21.26-86.4-51.73   c10.33-6.67,21.61-12.19,33.62-16.32c17.93,30.84,51.23,53.7,91.86,53.7C246.104,224.349,250.934,224.029,255.644,223.409z"/>
	<path style="fill:#F24125;" d="M263.341,401.28v2.96h-122.44v-2.96c0-13.83,11.2-25.03,25.03-25.03h21.09h30.2h21.09   C252.141,376.25,263.341,387.45,263.341,401.28"/>
	<path style="fill:#DD3B2A;" d="M191.43,376.25h-4.41h-21.09c-13.83,0-25.03,11.2-25.03,25.03v2.96h25.5v-2.96   C166.401,387.45,177.601,376.25,191.43,376.25"/>
</g>















</svg>
